<?xml version="1.0" encoding="utf-8"?>
<!-- Generator: Adobe Illustrator 27.5.0, SVG Export Plug-In . SVG Version: 6.00 Build 0)  -->
<svg version="1.1" xmlns="http://www.w3.org/2000/svg" xmlns:xlink="http://www.w3.org/1999/xlink" x="0px" y="0px"
	 viewBox="0 0 1122 1122" style="enable-background:new 0 0 1122 1122;" xml:space="preserve">
<g id="Bg">
	<g>
		<g>
			<rect style="fill:#FFFFFF;" width="1122" height="1122"/>
		</g>
	</g>
</g>
<g id="Object">
	<g>
		<path style="fill:#616E7D;" d="M846.506,504.689H568.142v104.078h95.162l9.357-17.297h2.16h37.947l18.785-33.619
			c0,0,14.725,21.842,21.945,33.619h31.743l20.692-25.267l13.823,25.267h26.75l60.49-25.643L846.506,504.689z"/>
		<path style="fill:#AAD4C8;" d="M568.142,491.556h-54.626c-25.679-52.054-79.137-87.964-141.122-87.964
			c-86.913,0-157.39,70.476-157.39,157.408c0,86.932,70.476,157.409,157.39,157.409c61.986,0,115.444-35.904,141.122-87.97h54.626
			v-21.672V504.689V491.556z M297.578,609.353c-26.708,0-48.356-21.642-48.356-48.353c0-26.71,21.648-48.359,48.356-48.359
			c26.695,0,48.362,21.648,48.362,48.359C345.94,587.711,324.274,609.353,297.578,609.353z"/>
		<path style="fill:#FFFFFF;" d="M297.578,512.641c-26.708,0-48.356,21.648-48.356,48.359c0,26.711,21.648,48.353,48.356,48.353
			c26.695,0,48.362-21.642,48.362-48.353C345.94,534.289,324.274,512.641,297.578,512.641z"/>
	</g>
</g>
</svg>
